<?xml version="1.0" encoding="UTF-8"?>
<!DOCTYPE svg PUBLIC "-//W3C//DTD SVG 1.1//EN" "http://www.w3.org/Graphics/SVG/1.1/DTD/svg11.dtd">
<svg xmlns="http://www.w3.org/2000/svg" version="1.1" width="25px" height="25px" style="shape-rendering:geometricPrecision; text-rendering:geometricPrecision; image-rendering:optimizeQuality; fill-rule:evenodd; clip-rule:evenodd" xmlns:xlink="http://www.w3.org/1999/xlink">
<g><path style="opacity:0.705" fill="#72de57" d="M 24.5,1.5 C 24.5,3.16667 24.5,4.83333 24.5,6.5C 20.1667,10.5 15.8333,14.5 11.5,18.5C 11.7845,16.5853 11.4511,14.9187 10.5,13.5C 14.3095,8.34647 18.9762,4.34647 24.5,1.5 Z"/></g>
<g><path style="opacity:0.595" fill="#b6e082" d="M -0.5,10.5 C 0.551975,10.3505 1.55198,10.5172 2.5,11C 4.01748,12.6851 5.68415,14.1851 7.5,15.5C 8.51776,14.8075 9.51776,14.1408 10.5,13.5C 11.4511,14.9187 11.7845,16.5853 11.5,18.5C 10.5213,20.1454 9.188,21.4787 7.5,22.5C 4.81364,20.1442 2.14697,17.8109 -0.5,15.5C -0.5,13.8333 -0.5,12.1667 -0.5,10.5 Z"/></g>
</svg>
