<?xml version="1.0" encoding="UTF-8"?>
<!DOCTYPE svg PUBLIC "-//W3C//DTD SVG 1.1//EN" "http://www.w3.org/Graphics/SVG/1.1/DTD/svg11.dtd">
<svg xmlns="http://www.w3.org/2000/svg" version="1.1" width="25px" height="25px" style="shape-rendering:geometricPrecision; text-rendering:geometricPrecision; image-rendering:optimizeQuality; fill-rule:evenodd; clip-rule:evenodd" xmlns:xlink="http://www.w3.org/1999/xlink">
<g><path style="opacity:0.435" fill="#f57061" d="M 5.5,3.5 C 7.74279,2.14161 9.40946,2.80828 10.5,5.5C 10.1667,5.5 9.83333,5.5 9.5,5.5C 8.60895,4.89022 7.60895,4.55688 6.5,4.5C 6.5,3.83333 6.16667,3.5 5.5,3.5 Z"/></g>
<g><path style="opacity:0.557" fill="#eb3a36" d="M 5.5,3.5 C 6.16667,3.5 6.5,3.83333 6.5,4.5C 5.59603,5.20895 5.26269,6.20895 5.5,7.5C 2.97805,6.3351 2.97805,5.00177 5.5,3.5 Z"/></g>
<g><path style="opacity:0.553" fill="#ed413b" d="M 18.5,7.5 C 18.5,7.16667 18.5,6.83333 18.5,6.5C 18.1788,4.95186 17.1788,4.28519 15.5,4.5C 15.5,4.16667 15.5,3.83333 15.5,3.5C 17.9876,2.08229 19.6542,2.91562 20.5,6C 20.1639,7.02992 19.4972,7.52992 18.5,7.5 Z"/></g>
<g><path style="opacity:1" fill="#cd3033" d="M 6.5,4.5 C 7.60895,4.55688 8.60895,4.89022 9.5,5.5C 9.44312,6.60895 9.10978,7.60895 8.5,8.5C 8.5,8.83333 8.5,9.16667 8.5,9.5C 8.16667,9.5 7.83333,9.5 7.5,9.5C 6.5,9.16667 5.83333,8.5 5.5,7.5C 5.26269,6.20895 5.59603,5.20895 6.5,4.5 Z"/></g>
<g><path style="opacity:1" fill="#c7282d" d="M 15.5,4.5 C 17.1788,4.28519 18.1788,4.95186 18.5,6.5C 17.5,7.16667 16.5,7.83333 15.5,8.5C 15.1667,7.83333 14.8333,7.16667 14.5,6.5C 14.8333,5.83333 15.1667,5.16667 15.5,4.5 Z"/></g>
<g><path style="opacity:1" fill="#df3733" d="M 9.5,5.5 C 9.83333,5.5 10.1667,5.5 10.5,5.5C 11.1667,5.5 11.5,5.83333 11.5,6.5C 11.5,7.16667 11.5,7.83333 11.5,8.5C 10.5,8.5 9.5,8.5 8.5,8.5C 9.10978,7.60895 9.44312,6.60895 9.5,5.5 Z"/></g>
<g><path style="opacity:0.949" fill="#f26456" d="M 15.5,3.5 C 15.5,3.83333 15.5,4.16667 15.5,4.5C 15.1667,5.16667 14.8333,5.83333 14.5,6.5C 13.7777,7.55114 12.7777,8.21781 11.5,8.5C 11.5,7.83333 11.5,7.16667 11.5,6.5C 12.8333,5.5 14.1667,4.5 15.5,3.5 Z"/></g>
<g><path style="opacity:0.376" fill="#ed6356" d="M 18.5,6.5 C 18.5,6.83333 18.5,7.16667 18.5,7.5C 17.8592,8.48224 17.1925,9.48224 16.5,10.5C 17.1925,11.5178 17.8592,12.5178 18.5,13.5C 18.1667,13.5 17.8333,13.5 17.5,13.5C 16.8333,13.1667 16.1667,12.8333 15.5,12.5C 15.5,11.5 15.5,10.5 15.5,9.5C 15.5,9.16667 15.5,8.83333 15.5,8.5C 16.5,7.83333 17.5,7.16667 18.5,6.5 Z"/></g>
<g><path style="opacity:1" fill="#d7242a" d="M 14.5,6.5 C 14.8333,7.16667 15.1667,7.83333 15.5,8.5C 15.5,8.83333 15.5,9.16667 15.5,9.5C 14.8333,9.5 14.1667,9.5 13.5,9.5C 12.5,9.5 11.5,9.5 10.5,9.5C 9.83333,9.5 9.16667,9.5 8.5,9.5C 8.5,9.16667 8.5,8.83333 8.5,8.5C 9.5,8.5 10.5,8.5 11.5,8.5C 12.7777,8.21781 13.7777,7.55114 14.5,6.5 Z"/></g>
<g><path style="opacity:1" fill="#e31e26" d="M 10.5,9.5 C 11.5,9.5 12.5,9.5 13.5,9.5C 13.5,10.5 13.5,11.5 13.5,12.5C 12.5,12.5 11.5,12.5 10.5,12.5C 10.5,11.5 10.5,10.5 10.5,9.5 Z"/></g>
<g><path style="opacity:1" fill="#e02b2c" d="M 13.5,9.5 C 14.1667,9.5 14.8333,9.5 15.5,9.5C 15.5,10.5 15.5,11.5 15.5,12.5C 14.8333,12.8333 14.1667,13.1667 13.5,13.5C 13.5,13.1667 13.5,12.8333 13.5,12.5C 13.5,11.5 13.5,10.5 13.5,9.5 Z"/></g>
<g><path style="opacity:1" fill="#e53531" d="M 7.5,9.5 C 7.83333,9.5 8.16667,9.5 8.5,9.5C 9.16667,9.5 9.83333,9.5 10.5,9.5C 10.5,10.5 10.5,11.5 10.5,12.5C 9.5,12.5 8.5,12.5 7.5,12.5C 7.5,12.1667 7.5,11.8333 7.5,11.5C 7.5,10.8333 7.5,10.1667 7.5,9.5 Z"/></g>
<g><path style="opacity:1" fill="#de2b2c" d="M 7.5,12.5 C 8.5,12.5 9.5,12.5 10.5,12.5C 11.5,12.5 12.5,12.5 13.5,12.5C 13.5,12.8333 13.5,13.1667 13.5,13.5C 13.5,13.8333 13.5,14.1667 13.5,14.5C 10.9899,14.9465 8.98989,14.2798 7.5,12.5 Z"/></g>
<g><path style="opacity:1" fill="#d73434" d="M 15.5,12.5 C 16.1667,12.8333 16.8333,13.1667 17.5,13.5C 17.5,13.8333 17.5,14.1667 17.5,14.5C 15.9519,14.8212 15.2852,15.8212 15.5,17.5C 14.5,17.1667 13.8333,16.5 13.5,15.5C 13.5,15.1667 13.5,14.8333 13.5,14.5C 13.5,14.1667 13.5,13.8333 13.5,13.5C 14.1667,13.1667 14.8333,12.8333 15.5,12.5 Z"/></g>
<g><path style="opacity:1" fill="#e44a42" d="M 7.5,11.5 C 7.5,11.8333 7.5,12.1667 7.5,12.5C 8.98989,14.2798 10.9899,14.9465 13.5,14.5C 13.5,14.8333 13.5,15.1667 13.5,15.5C 11.4862,15.3915 9.81953,16.0582 8.5,17.5C 8.17876,15.9519 7.17876,15.2852 5.5,15.5C 5.5,16.5 5.5,17.5 5.5,18.5C 2.80476,15.5502 3.47142,13.2169 7.5,11.5 Z"/></g>
<g><path style="opacity:1" fill="#c7282e" d="M 17.5,14.5 C 18.404,15.209 18.7373,16.209 18.5,17.5C 17.5,17.5 16.5,17.5 15.5,17.5C 15.2852,15.8212 15.9519,14.8212 17.5,14.5 Z"/></g>
<g><path style="opacity:0.494" fill="#eb4942" d="M 17.5,14.5 C 17.5,14.1667 17.5,13.8333 17.5,13.5C 17.8333,13.5 18.1667,13.5 18.5,13.5C 21.2662,16.0672 20.7662,18.0672 17,19.5C 15.9701,19.1639 15.4701,18.4972 15.5,17.5C 16.5,17.5 17.5,17.5 18.5,17.5C 18.7373,16.209 18.404,15.209 17.5,14.5 Z"/></g>
<g><path style="opacity:0.831" fill="#d93434" d="M 8.5,17.5 C 7.9473,19.5518 6.9473,19.8852 5.5,18.5C 5.5,17.5 5.5,16.5 5.5,15.5C 7.17876,15.2852 8.17876,15.9519 8.5,17.5 Z"/></g>
</svg>
