<?xml version="1.0" standalone="no"?>
<!DOCTYPE svg PUBLIC "-//W3C//DTD SVG 20010904//EN"
 "http://www.w3.org/TR/2001/REC-SVG-20010904/DTD/svg10.dtd">
<svg version="1.0" xmlns="http://www.w3.org/2000/svg"
 width="48.000000pt" height="48.000000pt" viewBox="0 0 48.000000 48.000000"
 preserveAspectRatio="xMidYMid meet">

<g transform="translate(0.000000,48.000000) scale(0.100000,-0.100000)"
fill="#000000" stroke="none">
<path d="M177 430 c-123 -37 -175 -196 -100 -304 85 -122 272 -109 341 24 19
37 23 56 19 104 -11 132 -132 214 -260 176z m91 -137 c22 21 31 24 40 15 9 -9
6 -18 -15 -40 l-27 -28 27 -28 c21 -22 24 -31 15 -40 -9 -9 -18 -6 -40 15
l-28 27 -28 -27 c-22 -21 -31 -24 -40 -15 -9 9 -6 18 15 40 l27 28 -27 28
c-21 22 -24 31 -15 40 9 9 18 6 40 -15 l28 -27 28 27z"/>
</g>
</svg>
